<?xml version="1.0" standalone="no"?><svg xmlns="http://www.w3.org/2000/svg" viewBox="0 0 1440 320"><path fill="#e3b11c" fill-opacity="1" d="M0,288L30,250.7C60,213,120,139,180,138.7C240,139,300,213,360,256C420,299,480,309,540,288C600,267,660,213,720,208C780,203,840,245,900,256C960,267,1020,245,1080,213.3C1140,181,1200,139,1260,117.3C1320,96,1380,96,1410,96L1440,96L1440,320L1410,320C1380,320,1320,320,1260,320C1200,320,1140,320,1080,320C1020,320,960,320,900,320C840,320,780,320,720,320C660,320,600,320,540,320C480,320,420,320,360,320C300,320,240,320,180,320C120,320,60,320,30,320L0,320Z"></path></svg>